<svg id="Layer_1" data-name="Layer 1" xmlns="http://www.w3.org/2000/svg" xmlns:xlink="http://www.w3.org/1999/xlink" viewBox="0 0 1000 1000"><defs><style>.cls-1,.cls-4,.cls-6{fill:none;}.cls-2{clip-path:url(#clip-path);}.cls-3{fill:#fff;}.cls-4{stroke:#232020;stroke-width:1.75px;}.cls-4,.cls-6{stroke-miterlimit:3.86;}.cls-5{fill:#db0032;}.cls-6{stroke:#db0032;stroke-width:0.18px;}.cls-7{fill:#232020;}</style><clipPath id="clip-path"><rect class="cls-1" x="68" y="419" width="864" height="162"/></clipPath></defs><g class="cls-2"><path class="cls-3" d="M90.77,444.69h98.7a4.64,4.64,0,0,1,4.65,4.63v98.74a4.64,4.64,0,0,1-4.65,4.63H90.77a4.64,4.64,0,0,1-4.65-4.63V449.32a4.64,4.64,0,0,1,4.65-4.63"/><path class="cls-4" d="M90.77,444.69h98.7a4.64,4.64,0,0,1,4.65,4.63v98.74a4.64,4.64,0,0,1-4.65,4.63H90.77a4.64,4.64,0,0,1-4.65-4.63V449.32A4.64,4.64,0,0,1,90.77,444.69Z"/><path class="cls-5" d="M107,452.58h79.3V465.1H106.49v24.23h7.38v-5.18c0-6.83,6.25-11.7,13.12-11.7h59.34V485H126.72v4.36h59.61v12.52H143.4v13.06h42.93V527.7h-44c-6.73,0-11.48-6.09-11.48-12.79V501.85h-4.1v30.21h59.61v12.52h-60.7a11.88,11.88,0,0,1-11.76-12V501.85h-7.38v42.73H93.91V464.29c0-6.84,6.25-11.71,13.12-11.71"/><path class="cls-6" d="M107,452.58h79.3V465.1H106.49v24.23h7.38v-5.18c0-6.83,6.25-11.7,13.12-11.7h59.34V485H126.72v4.36h59.61v12.52H143.4v13.06h42.93V527.7h-44c-6.73,0-11.48-6.09-11.48-12.79V501.85h-4.1v30.21h59.61v12.52h-60.7a11.88,11.88,0,0,1-11.76-12V501.85h-7.38v42.73H93.91V464.29C93.91,457.45,100.16,452.58,107,452.58Z"/><path class="cls-7" d="M226,472.23v23.44h10.58q3.66,0,5.35-1.65t2.25-6.51h1.61v20.16h-1.61a11.91,11.91,0,0,0-.88-5.1,5.66,5.66,0,0,0-2.31-2.43,9.46,9.46,0,0,0-4.41-.81H226V518a20.22,20.22,0,0,0,.56,6,3.88,3.88,0,0,0,1.81,1.88,8,8,0,0,0,3.95,1.06h2.11v1.64h-25v-1.64h2.06q3.61,0,5.25-2.15c.68-.94,1-3.19,1-6.76V479.54a20.1,20.1,0,0,0-.56-6,4,4,0,0,0-1.76-1.89,7.9,7.9,0,0,0-4-1.05h-2.06V469h43.28l.6,13.08h-1.51a18.2,18.2,0,0,0-2.59-6.13,8.54,8.54,0,0,0-3.65-2.84,19.17,19.17,0,0,0-6.72-.88Z"/><path class="cls-7" d="M271.24,487.14v9q4.89-9,10.06-9a5.38,5.38,0,0,1,3.88,1.47,4.59,4.59,0,0,1,1.54,3.4,4.09,4.09,0,0,1-1.11,2.9,3.49,3.49,0,0,1-2.64,1.18,5.58,5.58,0,0,1-3.35-1.5,5.49,5.49,0,0,0-2.75-1.5,2.5,2.5,0,0,0-1.67.88,20.85,20.85,0,0,0-4,5.9v19.28a12.3,12.3,0,0,0,.81,5.07,4.45,4.45,0,0,0,2,2,8.59,8.59,0,0,0,4.08.78v1.6h-20.2V527a8.13,8.13,0,0,0,4.46-1,3.77,3.77,0,0,0,1.51-2.25,23.77,23.77,0,0,0,.21-4.28V503.92a65.35,65.35,0,0,0-.28-8.36,3.27,3.27,0,0,0-1-1.95,2.84,2.84,0,0,0-1.86-.62,8.55,8.55,0,0,0-3,.66l-.43-1.59,11.94-4.92Z"/><path class="cls-7" d="M295.53,503.5q0,8.94,4.26,14t10.1,5.08a10.83,10.83,0,0,0,6.72-2.16q2.86-2.16,4.8-7.45l1.33.88a21.15,21.15,0,0,1-5.25,11,13.86,13.86,0,0,1-10.87,4.94,15.72,15.72,0,0,1-12.13-5.64q-5.06-5.64-5.05-15.17,0-10.31,5.17-16.08a16.72,16.72,0,0,1,13-5.77,14.36,14.36,0,0,1,10.87,4.45q4.26,4.46,4.26,11.91Zm0-2.53H313.8a17.32,17.32,0,0,0-.9-5.43,8.71,8.71,0,0,0-3.21-3.86,8.06,8.06,0,0,0-4.46-1.4,8.79,8.79,0,0,0-6.4,2.83,12.27,12.27,0,0,0-3.3,7.86"/><path class="cls-7" d="M353.38,487.14v13.73H352q-1.62-6.48-4.17-8.82a9.3,9.3,0,0,0-6.5-2.33,7.06,7.06,0,0,0-4.84,1.62A4.78,4.78,0,0,0,334.6,495a6.68,6.68,0,0,0,1.37,4.22c.88,1.2,2.68,2.48,5.4,3.82l6.28,3.12q8.72,4.35,8.71,11.47a10.91,10.91,0,0,1-4.06,8.85,13.84,13.84,0,0,1-9.07,3.36,30.19,30.19,0,0,1-8.24-1.33,8.08,8.08,0,0,0-2.32-.45,1.74,1.74,0,0,0-1.55,1.18H329.7v-14.4h1.42c.8,4.12,2.33,7.21,4.59,9.3a11,11,0,0,0,7.59,3.13,6.72,6.72,0,0,0,4.83-1.78,5.73,5.73,0,0,0,1.86-4.29,6.93,6.93,0,0,0-2.07-5.1q-2.09-2.07-8.31-5.22t-8.16-5.7a10,10,0,0,1-1.93-6.33,11.32,11.32,0,0,1,3.33-8.32,11.58,11.58,0,0,1,8.6-3.34,19.57,19.57,0,0,1,5.62,1,13.2,13.2,0,0,0,2.92.67,1.7,1.7,0,0,0,1.07-.31,4.24,4.24,0,0,0,.9-1.38Z"/><path class="cls-7" d="M373.73,495.65q6.9-8.5,13.16-8.51a9.25,9.25,0,0,1,5.52,1.65,11,11,0,0,1,3.69,5.42,25.73,25.73,0,0,1,.94,8.09v17.18a14.79,14.79,0,0,0,.6,5.18,3.61,3.61,0,0,0,1.52,1.71A8.47,8.47,0,0,0,403,527v1.6H383.53V527h.82a6.47,6.47,0,0,0,3.85-.85,4.52,4.52,0,0,0,1.53-2.52,27,27,0,0,0,.17-4.13V503q0-5.49-1.39-8a4.92,4.92,0,0,0-4.67-2.48c-3.38,0-6.76,1.9-10.11,5.71v21.24c0,2.72.16,4.4.47,5a4,4,0,0,0,1.66,1.86,10,10,0,0,0,4.28.59v1.6H360.63V527h.86c2,0,3.35-.52,4-1.55s1.05-3,1.05-5.95v-15a65.58,65.58,0,0,0-.32-8.82,3.78,3.78,0,0,0-1-2.14,2.64,2.64,0,0,0-1.78-.57,8,8,0,0,0-2.87.65l-.64-1.59,11.89-4.92h1.85Z"/><path class="cls-7" d="M425.42,487.14a17.28,17.28,0,0,1,14.34,6.94,21.58,21.58,0,0,1,4.6,13.62,26.14,26.14,0,0,1-2.54,10.94,18.72,18.72,0,0,1-7,8.34,18.07,18.07,0,0,1-9.9,2.81,16.54,16.54,0,0,1-14.13-7.24,22.79,22.79,0,0,1-4.42-13.71,24.72,24.72,0,0,1,2.68-11,18.67,18.67,0,0,1,7.07-8.09,17.83,17.83,0,0,1,9.28-2.61M424.08,490a8.84,8.84,0,0,0-4.58,1.38,9.59,9.59,0,0,0-3.72,4.85,23.72,23.72,0,0,0-1.42,8.91,31.56,31.56,0,0,0,3.42,15.15q3.42,6.36,9,6.36a8.36,8.36,0,0,0,6.89-3.51q2.7-3.51,2.71-12.07,0-10.71-4.52-16.86a9.27,9.27,0,0,0-7.79-4.21"/><path class="cls-7" d="M522.31,467.64l1.33,20.25h-1.33q-2.65-9.11-7.58-13.11a18.17,18.17,0,0,0-11.83-4,18.88,18.88,0,0,0-10.46,3c-3.11,2-5.56,5.21-7.34,9.6s-2.68,9.85-2.68,16.38a35.5,35.5,0,0,0,2.53,14,19.29,19.29,0,0,0,7.6,9.09,21.45,21.45,0,0,0,11.59,3.17,19.73,19.73,0,0,0,10-2.48q4.33-2.49,9.52-9.85l1.33.89q-4.38,7.95-10.22,11.64a25.39,25.39,0,0,1-13.86,3.69q-14.46,0-22.4-11a31.9,31.9,0,0,1-5.92-19.24,34.75,34.75,0,0,1,3.91-16.39,28.59,28.59,0,0,1,25.7-15.68,26.87,26.87,0,0,1,12.44,3.16,6.66,6.66,0,0,0,2.58,1,2.77,2.77,0,0,0,2-.83,6.82,6.82,0,0,0,1.59-3.29Z"/><path class="cls-7" d="M544.37,487.14v32.34a15,15,0,0,0,.54,5,3.77,3.77,0,0,0,1.58,1.87,8.31,8.31,0,0,0,3.83.61v1.6H531.23V527a8.68,8.68,0,0,0,3.85-.57,3.92,3.92,0,0,0,1.57-1.88,14.65,14.65,0,0,0,.58-5V504a55.4,55.4,0,0,0-.39-8.47,3.49,3.49,0,0,0-.94-2,2.65,2.65,0,0,0-1.76-.54,8.31,8.31,0,0,0-2.91.65l-.6-1.59,11.85-4.92Zm-3.55-21.05a4.13,4.13,0,0,1,3.07,1.3,4.31,4.31,0,0,1,1.26,3.13,4.41,4.41,0,0,1-1.26,3.16,4.11,4.11,0,0,1-3.07,1.32,4.17,4.17,0,0,1-3.09-1.32,4.39,4.39,0,0,1-1.28-3.16,4.31,4.31,0,0,1,1.26-3.13,4.15,4.15,0,0,1,3.11-1.3"/><path class="cls-7" d="M566.7,475.09v13.22h9.18v3.09H566.7v26.09c0,2.61.36,4.36,1.08,5.27a3.42,3.42,0,0,0,2.8,1.36,4.83,4.83,0,0,0,2.73-.9,5.75,5.75,0,0,0,2-2.66h1.7a13.87,13.87,0,0,1-4.26,6.49,9,9,0,0,1-5.67,2.18,7.47,7.47,0,0,1-3.87-1.12,6.69,6.69,0,0,1-2.8-3.2,17.28,17.28,0,0,1-.9-6.44V491.4h-6.23V490a16.39,16.39,0,0,0,4.84-3.28,26.55,26.55,0,0,0,4.43-5.47,51.37,51.37,0,0,0,2.78-6.11Z"/><path class="cls-7" d="M577.35,488.31h18.36v1.59h-.9a4.22,4.22,0,0,0-2.9.87,2.74,2.74,0,0,0-1,2.14,12.3,12.3,0,0,0,1.42,4.77l9.6,20.4,8.76-22.34a9.43,9.43,0,0,0,.73-3.58,2,2,0,0,0-.3-1.19,2.28,2.28,0,0,0-1.07-.78,8,8,0,0,0-2.58-.29v-1.59h12.78v1.59a6.05,6.05,0,0,0-2.45.71,7.23,7.23,0,0,0-1.89,2,29.31,29.31,0,0,0-1.46,3.4l-16,40.23a20.71,20.71,0,0,1-6.07,8.82q-3.75,3-7.23,3a6,6,0,0,1-4.17-1.49,4.57,4.57,0,0,1-1.63-3.43,3.92,3.92,0,0,1,1.18-3,4.51,4.51,0,0,1,3.24-1.12,11.23,11.23,0,0,1,3.87,1,8.77,8.77,0,0,0,2.14.67,4.41,4.41,0,0,0,2.81-1.37,14.39,14.39,0,0,0,3.07-5.28l2.77-7-14.13-30.32a25,25,0,0,0-2.06-3.42,9.93,9.93,0,0,0-1.77-2.08,9.32,9.32,0,0,0-3.17-1.25Z"/><path class="cls-7" d="M695.79,467.64l1.33,20.25h-1.33q-2.67-9.11-7.59-13.11a18.14,18.14,0,0,0-11.82-4,18.86,18.86,0,0,0-10.46,3c-3.11,2-5.56,5.21-7.35,9.6s-2.68,9.85-2.68,16.38a35.68,35.68,0,0,0,2.53,14,19.31,19.31,0,0,0,7.61,9.09,21.42,21.42,0,0,0,11.59,3.17,19.76,19.76,0,0,0,10-2.48q4.33-2.49,9.51-9.85l1.33.89q-4.38,7.95-10.21,11.64a25.39,25.39,0,0,1-13.86,3.69q-14.46,0-22.4-11a31.9,31.9,0,0,1-5.92-19.24,34.86,34.86,0,0,1,3.9-16.39,28.62,28.62,0,0,1,25.7-15.68,26.88,26.88,0,0,1,12.45,3.16,6.68,6.68,0,0,0,2.57,1,2.79,2.79,0,0,0,2-.83,6.9,6.9,0,0,0,1.58-3.29Z"/><path class="cls-7" d="M723.5,487.14a17.29,17.29,0,0,1,14.35,6.94,21.63,21.63,0,0,1,4.59,13.62,26.12,26.12,0,0,1-2.53,10.94,18.78,18.78,0,0,1-7,8.34,18.12,18.12,0,0,1-9.9,2.81,16.54,16.54,0,0,1-14.13-7.24,22.8,22.8,0,0,1-4.43-13.71,24.73,24.73,0,0,1,2.69-11,18.65,18.65,0,0,1,7.06-8.09,17.83,17.83,0,0,1,9.28-2.61M722.17,490a8.9,8.9,0,0,0-4.59,1.38,9.7,9.7,0,0,0-3.72,4.85,23.72,23.72,0,0,0-1.42,8.91,31.56,31.56,0,0,0,3.42,15.15q3.42,6.36,9,6.36a8.35,8.35,0,0,0,6.88-3.51q2.72-3.51,2.71-12.07,0-10.71-4.52-16.86a9.24,9.24,0,0,0-7.78-4.21"/><path class="cls-7" d="M761.82,466.09v53.39a15.12,15.12,0,0,0,.53,5,3.89,3.89,0,0,0,1.66,1.87,9.45,9.45,0,0,0,4.17.63v1.6H748.81V527a8.32,8.32,0,0,0,3.73-.57,3.81,3.81,0,0,0,1.57-1.88,15.06,15.06,0,0,0,.56-5V482.92a64.16,64.16,0,0,0-.3-8.32,3.68,3.68,0,0,0-1-2.13,2.53,2.53,0,0,0-1.7-.57,7.94,7.94,0,0,0-2.85.71l-.73-1.6,11.76-4.92Z"/><path class="cls-7" d="M786.25,466.09v53.39a14.77,14.77,0,0,0,.54,5,3.87,3.87,0,0,0,1.65,1.87,9.45,9.45,0,0,0,4.17.63v1.6H773.24V527a8.32,8.32,0,0,0,3.73-.57,3.81,3.81,0,0,0,1.57-1.88,15.06,15.06,0,0,0,.56-5V482.92a64.16,64.16,0,0,0-.3-8.32,3.68,3.68,0,0,0-1-2.13,2.51,2.51,0,0,0-1.7-.57,7.85,7.85,0,0,0-2.84.71l-.74-1.6,11.76-4.92Z"/><path class="cls-7" d="M803.67,503.5q0,8.94,4.26,14t10.1,5.08a10.86,10.86,0,0,0,6.73-2.16q2.85-2.16,4.79-7.45l1.33.88a21.06,21.06,0,0,1-5.24,11,13.89,13.89,0,0,1-10.87,4.94,15.74,15.74,0,0,1-12.14-5.64q-5-5.64-5-15.17,0-10.31,5.18-16.08a16.71,16.71,0,0,1,13-5.77,14.38,14.38,0,0,1,10.87,4.45q4.25,4.46,4.25,11.91Zm0-2.53H822a17.25,17.25,0,0,0-.91-5.43,8.58,8.58,0,0,0-3.21-3.86,8,8,0,0,0-4.46-1.4,8.81,8.81,0,0,0-6.4,2.83,12.37,12.37,0,0,0-3.3,7.86"/><path class="cls-7" d="M846.65,513.89a13.14,13.14,0,0,1-5.54-5,13.64,13.64,0,0,1-1.93-7.14,13.87,13.87,0,0,1,4.41-10.28,15.46,15.46,0,0,1,11.29-4.3,17,17,0,0,1,9.76,2.81H873a11,11,0,0,1,2.15.11.72.72,0,0,1,.43.37,2.76,2.76,0,0,1,.26,1.4,3.85,3.85,0,0,1-.22,1.58.88.88,0,0,1-.45.35,9.43,9.43,0,0,1-2.19.13h-5.13a13,13,0,0,1,2.4,8.1,12.81,12.81,0,0,1-4.21,9.64q-4.2,4-11.29,4a21,21,0,0,1-6-.9,11.4,11.4,0,0,0-2.55,2.92,4.74,4.74,0,0,0-.66,2.13,2.05,2.05,0,0,0,.7,1.45,5.16,5.16,0,0,0,2.77,1q1.2.18,6,.31,8.84.23,11.45.63a10.63,10.63,0,0,1,6.37,3,8.37,8.37,0,0,1,2.38,6.07q0,5-4.54,9.32Q864,548,853.22,548a24.52,24.52,0,0,1-14-3.83c-2.15-1.47-3.22-3-3.22-4.58a5.08,5.08,0,0,1,.47-2.11,23.73,23.73,0,0,1,3-4.53c.2-.27,1.65-1.85,4.37-4.76a13.21,13.21,0,0,1-3.16-2.44,3.62,3.62,0,0,1-.93-2.44,7.31,7.31,0,0,1,1.23-3.6c.81-1.38,2.7-3.33,5.65-5.85m-.43,14.69a21.31,21.31,0,0,0-3,4.17,7.74,7.74,0,0,0-1,3.56q0,2.12,2.49,3.7,4.29,2.72,12.4,2.72,7.73,0,11.39-2.79c2.45-1.85,3.67-3.84,3.67-5.94a3.32,3.32,0,0,0-2.19-3.25q-2.24-1-8.85-1.14a137.57,137.57,0,0,1-14.85-1m7.91-39.33a6.67,6.67,0,0,0-5.34,2.59c-1.43,1.73-2.15,4.37-2.15,7.94q0,6.95,2.93,10.76a6.88,6.88,0,0,0,5.67,2.9,6.7,6.7,0,0,0,5.37-2.51q2.11-2.49,2.11-7.86,0-7-3-10.92a6.73,6.73,0,0,0-5.62-2.9"/><path class="cls-7" d="M886.68,503.5q0,8.94,4.25,14t10.1,5.08a10.86,10.86,0,0,0,6.73-2.16q2.85-2.16,4.79-7.45l1.33.88a21.06,21.06,0,0,1-5.24,11,13.88,13.88,0,0,1-10.87,4.94,15.74,15.74,0,0,1-12.14-5.64q-5-5.64-5-15.17,0-10.31,5.18-16.08a16.72,16.72,0,0,1,13-5.77,14.38,14.38,0,0,1,10.87,4.45q4.25,4.46,4.25,11.91Zm0-2.53H905a17.62,17.62,0,0,0-.9-5.43,8.66,8.66,0,0,0-3.22-3.86,8,8,0,0,0-4.46-1.4,8.81,8.81,0,0,0-6.4,2.83,12.31,12.31,0,0,0-3.29,7.86"/></g></svg>